<mxfile host="app.diagrams.net" modified="2022-03-21T14:56:04.682Z" agent="5.0 (X11; Linux x86_64) AppleWebKit/537.36 (KHTML, like Gecko) Chrome/71.0.3578.98 Safari/537.36" etag="zurr1cGKtjdf2iVGQjqr" version="17.1.3" type="github">
  <diagram id="MQqg0SwvJMVmJNQTPo3I" name="Page-1">
    <mxGraphModel dx="920" dy="816" grid="1" gridSize="10" guides="1" tooltips="1" connect="1" arrows="1" fold="1" page="1" pageScale="1" pageWidth="827" pageHeight="1169" math="0" shadow="0">
      <root>
        <mxCell id="0" />
        <mxCell id="1" parent="0" />
        <mxCell id="GQu8pzrChekPHRyavr2V-2" value="Marcas De Carro" style="swimlane;fontStyle=0;childLayout=stackLayout;horizontal=1;startSize=30;horizontalStack=0;resizeParent=1;resizeParentMax=0;resizeLast=0;collapsible=1;marginBottom=0;fillColor=#e51400;fontColor=#ffffff;strokeColor=#B20000;" vertex="1" parent="1">
          <mxGeometry x="145" y="60" width="180" height="180" as="geometry" />
        </mxCell>
        <mxCell id="GQu8pzrChekPHRyavr2V-3" value="Agrale" style="text;align=left;verticalAlign=middle;spacingLeft=4;spacingRight=4;overflow=hidden;points=[[0,0.5],[1,0.5]];portConstraint=eastwest;rotatable=0;" vertex="1" parent="GQu8pzrChekPHRyavr2V-2">
          <mxGeometry y="30" width="180" height="30" as="geometry" />
        </mxCell>
        <mxCell id="GQu8pzrChekPHRyavr2V-4" value="BMW" style="text;strokeColor=none;fillColor=none;align=left;verticalAlign=middle;spacingLeft=4;spacingRight=4;overflow=hidden;points=[[0,0.5],[1,0.5]];portConstraint=eastwest;rotatable=0;" vertex="1" parent="GQu8pzrChekPHRyavr2V-2">
          <mxGeometry y="60" width="180" height="30" as="geometry" />
        </mxCell>
        <mxCell id="GQu8pzrChekPHRyavr2V-5" value="Chevrolet" style="text;strokeColor=none;fillColor=none;align=left;verticalAlign=middle;spacingLeft=4;spacingRight=4;overflow=hidden;points=[[0,0.5],[1,0.5]];portConstraint=eastwest;rotatable=0;" vertex="1" parent="GQu8pzrChekPHRyavr2V-2">
          <mxGeometry y="90" width="180" height="30" as="geometry" />
        </mxCell>
        <mxCell id="GQu8pzrChekPHRyavr2V-6" value="Citroen" style="text;strokeColor=none;fillColor=none;align=left;verticalAlign=middle;spacingLeft=4;spacingRight=4;overflow=hidden;points=[[0,0.5],[1,0.5]];portConstraint=eastwest;rotatable=0;" vertex="1" parent="GQu8pzrChekPHRyavr2V-2">
          <mxGeometry y="120" width="180" height="30" as="geometry" />
        </mxCell>
        <mxCell id="GQu8pzrChekPHRyavr2V-7" value="Ford" style="text;strokeColor=none;fillColor=none;align=left;verticalAlign=middle;spacingLeft=4;spacingRight=4;overflow=hidden;points=[[0,0.5],[1,0.5]];portConstraint=eastwest;rotatable=0;" vertex="1" parent="GQu8pzrChekPHRyavr2V-2">
          <mxGeometry y="150" width="180" height="30" as="geometry" />
        </mxCell>
        <mxCell id="GQu8pzrChekPHRyavr2V-8" value="" style="endArrow=none;html=1;rounded=0;entryX=0;entryY=0.5;entryDx=0;entryDy=0;exitX=1;exitY=0.5;exitDx=0;exitDy=0;" edge="1" parent="1" source="GQu8pzrChekPHRyavr2V-6" target="GQu8pzrChekPHRyavr2V-9">
          <mxGeometry width="50" height="50" relative="1" as="geometry">
            <mxPoint x="340" y="230" as="sourcePoint" />
            <mxPoint x="510" y="155" as="targetPoint" />
          </mxGeometry>
        </mxCell>
        <mxCell id="GQu8pzrChekPHRyavr2V-9" value="Possuem" style="rhombus;whiteSpace=wrap;html=1;fillColor=#fa6800;fontColor=#000000;strokeColor=#C73500;" vertex="1" parent="1">
          <mxGeometry x="460" y="270" width="120" height="80" as="geometry" />
        </mxCell>
        <mxCell id="GQu8pzrChekPHRyavr2V-12" value="" style="endArrow=none;html=1;rounded=0;exitX=0.5;exitY=0;exitDx=0;exitDy=0;" edge="1" parent="1" source="GQu8pzrChekPHRyavr2V-23" target="GQu8pzrChekPHRyavr2V-7">
          <mxGeometry width="50" height="50" relative="1" as="geometry">
            <mxPoint x="235" y="310" as="sourcePoint" />
            <mxPoint x="210" y="280" as="targetPoint" />
          </mxGeometry>
        </mxCell>
        <mxCell id="GQu8pzrChekPHRyavr2V-13" value="Modelos" style="rounded=0;whiteSpace=wrap;html=1;fillColor=#f0a30a;fontColor=#000000;strokeColor=#BD7000;" vertex="1" parent="1">
          <mxGeometry x="175" y="450" width="120" height="60" as="geometry" />
        </mxCell>
        <mxCell id="GQu8pzrChekPHRyavr2V-14" value="" style="endArrow=none;html=1;rounded=0;entryX=0;entryY=0;entryDx=0;entryDy=0;exitX=1;exitY=0.5;exitDx=0;exitDy=0;" edge="1" parent="1" source="GQu8pzrChekPHRyavr2V-15" target="GQu8pzrChekPHRyavr2V-13">
          <mxGeometry width="50" height="50" relative="1" as="geometry">
            <mxPoint x="90" y="310" as="sourcePoint" />
            <mxPoint x="410" y="280" as="targetPoint" />
          </mxGeometry>
        </mxCell>
        <mxCell id="GQu8pzrChekPHRyavr2V-15" value="Ano" style="ellipse;whiteSpace=wrap;html=1;fillColor=#e3c800;fontColor=#000000;strokeColor=#B09500;" vertex="1" parent="1">
          <mxGeometry x="20" y="410" width="60" height="40" as="geometry" />
        </mxCell>
        <mxCell id="GQu8pzrChekPHRyavr2V-16" value="KM" style="ellipse;whiteSpace=wrap;html=1;fillColor=#e3c800;fontColor=#000000;strokeColor=#B09500;" vertex="1" parent="1">
          <mxGeometry x="20" y="450" width="60" height="40" as="geometry" />
        </mxCell>
        <mxCell id="GQu8pzrChekPHRyavr2V-17" value="" style="endArrow=none;html=1;rounded=0;entryX=0;entryY=0.25;entryDx=0;entryDy=0;exitX=1;exitY=0.5;exitDx=0;exitDy=0;" edge="1" parent="1" source="GQu8pzrChekPHRyavr2V-16" target="GQu8pzrChekPHRyavr2V-13">
          <mxGeometry width="50" height="50" relative="1" as="geometry">
            <mxPoint x="210" y="330" as="sourcePoint" />
            <mxPoint x="260" y="280" as="targetPoint" />
          </mxGeometry>
        </mxCell>
        <mxCell id="GQu8pzrChekPHRyavr2V-19" value="Cor" style="ellipse;whiteSpace=wrap;html=1;fillColor=#e3c800;fontColor=#000000;strokeColor=#B09500;" vertex="1" parent="1">
          <mxGeometry x="20" y="490" width="60" height="40" as="geometry" />
        </mxCell>
        <mxCell id="GQu8pzrChekPHRyavr2V-20" value="" style="endArrow=none;html=1;rounded=0;entryX=1;entryY=0.5;entryDx=0;entryDy=0;exitX=0;exitY=0.75;exitDx=0;exitDy=0;" edge="1" parent="1" source="GQu8pzrChekPHRyavr2V-13" target="GQu8pzrChekPHRyavr2V-19">
          <mxGeometry width="50" height="50" relative="1" as="geometry">
            <mxPoint x="210" y="330" as="sourcePoint" />
            <mxPoint x="260" y="280" as="targetPoint" />
          </mxGeometry>
        </mxCell>
        <mxCell id="GQu8pzrChekPHRyavr2V-21" value="&lt;font style=&quot;font-size: 10px&quot;&gt;CombustÃ­vel&lt;/font&gt;" style="ellipse;whiteSpace=wrap;html=1;fillColor=#e3c800;fontColor=#000000;strokeColor=#B09500;" vertex="1" parent="1">
          <mxGeometry x="20" y="530" width="60" height="40" as="geometry" />
        </mxCell>
        <mxCell id="GQu8pzrChekPHRyavr2V-22" value="" style="endArrow=none;html=1;rounded=0;exitX=1;exitY=0.5;exitDx=0;exitDy=0;entryX=0;entryY=1;entryDx=0;entryDy=0;" edge="1" parent="1" source="GQu8pzrChekPHRyavr2V-21" target="GQu8pzrChekPHRyavr2V-13">
          <mxGeometry width="50" height="50" relative="1" as="geometry">
            <mxPoint x="210" y="330" as="sourcePoint" />
            <mxPoint x="260" y="280" as="targetPoint" />
          </mxGeometry>
        </mxCell>
        <mxCell id="GQu8pzrChekPHRyavr2V-23" value="Possuem" style="rhombus;whiteSpace=wrap;html=1;fontSize=10;fillColor=#fa6800;fontColor=#000000;strokeColor=#C73500;" vertex="1" parent="1">
          <mxGeometry x="177.5" y="310" width="115" height="80" as="geometry" />
        </mxCell>
        <mxCell id="GQu8pzrChekPHRyavr2V-25" value="" style="endArrow=none;html=1;rounded=0;fontSize=10;entryX=0.5;entryY=1;entryDx=0;entryDy=0;exitX=0.5;exitY=0;exitDx=0;exitDy=0;" edge="1" parent="1" source="GQu8pzrChekPHRyavr2V-13" target="GQu8pzrChekPHRyavr2V-23">
          <mxGeometry width="50" height="50" relative="1" as="geometry">
            <mxPoint x="210" y="430" as="sourcePoint" />
            <mxPoint x="260" y="380" as="targetPoint" />
          </mxGeometry>
        </mxCell>
        <mxCell id="GQu8pzrChekPHRyavr2V-26" value="" style="endArrow=none;html=1;rounded=0;fontSize=10;exitX=1;exitY=0.5;exitDx=0;exitDy=0;" edge="1" parent="1" source="GQu8pzrChekPHRyavr2V-9" target="GQu8pzrChekPHRyavr2V-27">
          <mxGeometry width="50" height="50" relative="1" as="geometry">
            <mxPoint x="580" y="330" as="sourcePoint" />
            <mxPoint x="720" y="155" as="targetPoint" />
          </mxGeometry>
        </mxCell>
        <mxCell id="GQu8pzrChekPHRyavr2V-27" value="&lt;font style=&quot;font-size: 16px&quot;&gt;Carros&lt;/font&gt;" style="rounded=0;whiteSpace=wrap;html=1;fontSize=10;fillColor=#f0a30a;fontColor=#000000;strokeColor=#BD7000;" vertex="1" parent="1">
          <mxGeometry x="710" y="107.5" width="153" height="95" as="geometry" />
        </mxCell>
        <mxCell id="GQu8pzrChekPHRyavr2V-28" value="&lt;font style=&quot;font-size: 12px&quot;&gt;Vendedores&lt;/font&gt;" style="rounded=0;whiteSpace=wrap;html=1;fontSize=16;fillColor=#f0a30a;fontColor=#000000;strokeColor=#BD7000;" vertex="1" parent="1">
          <mxGeometry x="460" y="380" width="120" height="60" as="geometry" />
        </mxCell>
        <mxCell id="GQu8pzrChekPHRyavr2V-29" value="" style="endArrow=none;html=1;rounded=0;fontSize=12;entryX=0.5;entryY=1;entryDx=0;entryDy=0;exitX=0.5;exitY=0;exitDx=0;exitDy=0;" edge="1" parent="1" source="GQu8pzrChekPHRyavr2V-28" target="GQu8pzrChekPHRyavr2V-9">
          <mxGeometry width="50" height="50" relative="1" as="geometry">
            <mxPoint x="420" y="330" as="sourcePoint" />
            <mxPoint x="530" y="200" as="targetPoint" />
          </mxGeometry>
        </mxCell>
        <mxCell id="GQu8pzrChekPHRyavr2V-30" value="Nome" style="ellipse;whiteSpace=wrap;html=1;fontSize=12;fillColor=#e3c800;fontColor=#000000;strokeColor=#B09500;" vertex="1" parent="1">
          <mxGeometry x="430" y="470" width="60" height="40" as="geometry" />
        </mxCell>
        <mxCell id="GQu8pzrChekPHRyavr2V-31" value="Email" style="ellipse;whiteSpace=wrap;html=1;fontSize=12;fillColor=#e3c800;fontColor=#000000;strokeColor=#B09500;" vertex="1" parent="1">
          <mxGeometry x="490" y="470" width="60" height="40" as="geometry" />
        </mxCell>
        <mxCell id="GQu8pzrChekPHRyavr2V-32" value="Telefone" style="ellipse;whiteSpace=wrap;html=1;fontSize=12;fillColor=#e3c800;fontColor=#000000;strokeColor=#B09500;" vertex="1" parent="1">
          <mxGeometry x="550" y="470" width="60" height="40" as="geometry" />
        </mxCell>
        <mxCell id="GQu8pzrChekPHRyavr2V-34" value="" style="endArrow=none;html=1;rounded=0;fontSize=12;exitX=0.5;exitY=0;exitDx=0;exitDy=0;entryX=0;entryY=1;entryDx=0;entryDy=0;" edge="1" parent="1" source="GQu8pzrChekPHRyavr2V-30" target="GQu8pzrChekPHRyavr2V-28">
          <mxGeometry width="50" height="50" relative="1" as="geometry">
            <mxPoint x="570" y="380" as="sourcePoint" />
            <mxPoint x="620" y="330" as="targetPoint" />
          </mxGeometry>
        </mxCell>
        <mxCell id="GQu8pzrChekPHRyavr2V-35" value="" style="endArrow=none;html=1;rounded=0;fontSize=12;exitX=0.5;exitY=0;exitDx=0;exitDy=0;entryX=0.5;entryY=1;entryDx=0;entryDy=0;" edge="1" parent="1" source="GQu8pzrChekPHRyavr2V-31" target="GQu8pzrChekPHRyavr2V-28">
          <mxGeometry width="50" height="50" relative="1" as="geometry">
            <mxPoint x="570" y="380" as="sourcePoint" />
            <mxPoint x="620" y="330" as="targetPoint" />
          </mxGeometry>
        </mxCell>
        <mxCell id="GQu8pzrChekPHRyavr2V-36" value="" style="endArrow=none;html=1;rounded=0;fontSize=12;exitX=0.5;exitY=0;exitDx=0;exitDy=0;entryX=1;entryY=1;entryDx=0;entryDy=0;" edge="1" parent="1" source="GQu8pzrChekPHRyavr2V-32" target="GQu8pzrChekPHRyavr2V-28">
          <mxGeometry width="50" height="50" relative="1" as="geometry">
            <mxPoint x="570" y="380" as="sourcePoint" />
            <mxPoint x="620" y="330" as="targetPoint" />
          </mxGeometry>
        </mxCell>
        <mxCell id="GQu8pzrChekPHRyavr2V-37" value="PreÃ§o" style="ellipse;whiteSpace=wrap;html=1;fontSize=12;fillColor=#e3c800;fontColor=#000000;strokeColor=#B09500;" vertex="1" parent="1">
          <mxGeometry x="719.75" y="430" width="133.5" height="80" as="geometry" />
        </mxCell>
        <mxCell id="GQu8pzrChekPHRyavr2V-38" value="" style="endArrow=none;html=1;rounded=0;fontSize=12;entryX=0.5;entryY=1;entryDx=0;entryDy=0;exitX=0.5;exitY=0;exitDx=0;exitDy=0;" edge="1" parent="1" source="GQu8pzrChekPHRyavr2V-37" target="GQu8pzrChekPHRyavr2V-27">
          <mxGeometry width="50" height="50" relative="1" as="geometry">
            <mxPoint x="660" y="380" as="sourcePoint" />
            <mxPoint x="710" y="330" as="targetPoint" />
          </mxGeometry>
        </mxCell>
        <mxCell id="GQu8pzrChekPHRyavr2V-40" value="Compradores" style="rounded=0;whiteSpace=wrap;html=1;fontSize=12;fillColor=#f0a30a;fontColor=#000000;strokeColor=#BD7000;" vertex="1" parent="1">
          <mxGeometry x="360" y="125" width="130" height="60" as="geometry" />
        </mxCell>
        <mxCell id="GQu8pzrChekPHRyavr2V-41" value="" style="endArrow=none;html=1;rounded=0;fontSize=12;entryX=0.5;entryY=0;entryDx=0;entryDy=0;exitX=0.5;exitY=1;exitDx=0;exitDy=0;" edge="1" parent="1" source="GQu8pzrChekPHRyavr2V-40" target="GQu8pzrChekPHRyavr2V-9">
          <mxGeometry width="50" height="50" relative="1" as="geometry">
            <mxPoint x="460" y="400" as="sourcePoint" />
            <mxPoint x="510" y="350" as="targetPoint" />
          </mxGeometry>
        </mxCell>
        <mxCell id="GQu8pzrChekPHRyavr2V-42" value="Procuram" style="rhombus;whiteSpace=wrap;html=1;fontSize=12;fillColor=#fa6800;fontColor=#000000;strokeColor=#C73500;" vertex="1" parent="1">
          <mxGeometry x="550" y="115" width="100" height="80" as="geometry" />
        </mxCell>
        <mxCell id="GQu8pzrChekPHRyavr2V-43" value="" style="endArrow=none;html=1;rounded=0;fontSize=12;entryX=0;entryY=0.5;entryDx=0;entryDy=0;exitX=1;exitY=0.5;exitDx=0;exitDy=0;" edge="1" parent="1" source="GQu8pzrChekPHRyavr2V-40" target="GQu8pzrChekPHRyavr2V-42">
          <mxGeometry width="50" height="50" relative="1" as="geometry">
            <mxPoint x="460" y="400" as="sourcePoint" />
            <mxPoint x="510" y="350" as="targetPoint" />
          </mxGeometry>
        </mxCell>
        <mxCell id="GQu8pzrChekPHRyavr2V-44" value="" style="endArrow=none;html=1;rounded=0;fontSize=12;entryX=0;entryY=0.5;entryDx=0;entryDy=0;exitX=1;exitY=0.5;exitDx=0;exitDy=0;" edge="1" parent="1" source="GQu8pzrChekPHRyavr2V-42" target="GQu8pzrChekPHRyavr2V-27">
          <mxGeometry width="50" height="50" relative="1" as="geometry">
            <mxPoint x="460" y="400" as="sourcePoint" />
            <mxPoint x="510" y="350" as="targetPoint" />
          </mxGeometry>
        </mxCell>
        <mxCell id="GQu8pzrChekPHRyavr2V-45" value="Nome" style="ellipse;whiteSpace=wrap;html=1;fontSize=12;fillColor=#e3c800;fontColor=#000000;strokeColor=#B09500;" vertex="1" parent="1">
          <mxGeometry x="330" y="60" width="60" height="40" as="geometry" />
        </mxCell>
        <mxCell id="GQu8pzrChekPHRyavr2V-46" value="Email" style="ellipse;whiteSpace=wrap;html=1;fontSize=12;fillColor=#e3c800;fontColor=#000000;strokeColor=#B09500;" vertex="1" parent="1">
          <mxGeometry x="395" y="60" width="60" height="40" as="geometry" />
        </mxCell>
        <mxCell id="GQu8pzrChekPHRyavr2V-47" value="Telefone" style="ellipse;whiteSpace=wrap;html=1;fontSize=12;fillColor=#e3c800;fontColor=#000000;strokeColor=#B09500;" vertex="1" parent="1">
          <mxGeometry x="460" y="60" width="60" height="40" as="geometry" />
        </mxCell>
        <mxCell id="GQu8pzrChekPHRyavr2V-48" value="" style="endArrow=none;html=1;rounded=0;fontSize=12;entryX=0.5;entryY=1;entryDx=0;entryDy=0;exitX=0;exitY=0;exitDx=0;exitDy=0;" edge="1" parent="1" source="GQu8pzrChekPHRyavr2V-40" target="GQu8pzrChekPHRyavr2V-45">
          <mxGeometry width="50" height="50" relative="1" as="geometry">
            <mxPoint x="460" y="400" as="sourcePoint" />
            <mxPoint x="510" y="350" as="targetPoint" />
          </mxGeometry>
        </mxCell>
        <mxCell id="GQu8pzrChekPHRyavr2V-49" value="" style="endArrow=none;html=1;rounded=0;fontSize=12;entryX=0.5;entryY=1;entryDx=0;entryDy=0;exitX=0.5;exitY=0;exitDx=0;exitDy=0;" edge="1" parent="1" source="GQu8pzrChekPHRyavr2V-40" target="GQu8pzrChekPHRyavr2V-46">
          <mxGeometry width="50" height="50" relative="1" as="geometry">
            <mxPoint x="460" y="400" as="sourcePoint" />
            <mxPoint x="510" y="350" as="targetPoint" />
          </mxGeometry>
        </mxCell>
        <mxCell id="GQu8pzrChekPHRyavr2V-50" value="" style="endArrow=none;html=1;rounded=0;fontSize=12;entryX=0.5;entryY=1;entryDx=0;entryDy=0;exitX=1;exitY=0;exitDx=0;exitDy=0;" edge="1" parent="1" source="GQu8pzrChekPHRyavr2V-40" target="GQu8pzrChekPHRyavr2V-47">
          <mxGeometry width="50" height="50" relative="1" as="geometry">
            <mxPoint x="480" y="130" as="sourcePoint" />
            <mxPoint x="510" y="350" as="targetPoint" />
          </mxGeometry>
        </mxCell>
      </root>
    </mxGraphModel>
  </diagram>
</mxfile>
